<svg width="21" height="13" viewBox="0 0 21 13" fill="none" xmlns="http://www.w3.org/2000/svg">
<path d="M10.5064 12.0665C9.97673 12.0672 9.47242 11.8472 9.12236 11.4629L1.26865 2.83334C0.752389 2.23859 0.821712 1.35421 1.42479 0.841449C2.02787 0.32869 2.94411 0.375109 3.48844 0.945999L10.3559 8.49226C10.3939 8.53417 10.4488 8.5582 10.5064 8.5582C10.5641 8.5582 10.6189 8.53417 10.6569 8.49226L17.5244 0.945999C17.8692 0.548771 18.4096 0.363238 18.9363 0.461195C19.4631 0.559151 19.8937 0.925229 20.0614 1.41777C20.2291 1.91031 20.1077 2.45204 19.7442 2.83334L11.8929 11.4598C11.5422 11.8451 11.0372 12.066 10.5064 12.0665Z" fill="#05AAE1"/>
</svg>
